<svg xmlns="http://www.w3.org/2000/svg" fill="none" viewBox="0 0 33 34.206"><path fill="#fff" fill-rule="evenodd" stroke="#fff" stroke-width="4.2" d="M20.56 2.173 3.91 3.398c-1.342.116-1.81.991-1.81 2.04v18.198c0 .817.292 1.516.993 2.45l3.914 5.075c.643.817 1.227.991 2.455.933l19.335-1.167c1.635-.116 2.103-.875 2.103-2.158V8.297c0-.664-.263-.855-1.037-1.42l-.132-.097-5.315-3.732c-1.285-.933-1.811-1.05-3.856-.875z" clip-rule="evenodd"/><path fill="#000" fill-rule="evenodd" d="M20.56 2.173 3.91 3.398c-1.342.116-1.81.991-1.81 2.04v18.198c0 .817.292 1.516.993 2.45l3.914 5.075c.643.817 1.227.991 2.455.933l19.335-1.167c1.635-.116 2.103-.875 2.103-2.158V8.297c0-.664-.263-.855-1.037-1.42l-.132-.097-5.315-3.732c-1.285-.933-1.811-1.05-3.856-.875M9.9 7.96c-1.579.106-1.937.13-2.834-.597l-2.28-1.808c-.232-.234-.115-.526.468-.583l16.007-1.167c1.343-.117 2.044.35 2.57.758l2.746 1.984c.117.058.408.407.058.407l-16.531.992zM8.059 28.594v-17.38c0-.759.233-1.109.934-1.168L27.978 8.94c.644-.059.936.35.936 1.107V27.31c0 .76-.117 1.401-1.17 1.46L9.578 29.82c-1.051.058-1.518-.292-1.518-1.226zm17.935-16.448c.116.525 0 1.05-.527 1.11l-.876.174v12.83c-.76.408-1.46.642-2.044.642-.935 0-1.17-.292-1.87-1.167l-5.726-8.982v8.69l1.812.41s0 1.049-1.462 1.049l-4.03.233c-.116-.233 0-.816.41-.933l1.05-.291v-11.49l-1.46-.117c-.116-.526.175-1.283.994-1.342l4.323-.291 5.959 9.098V13.72l-1.52-.174c-.116-.642.35-1.109.935-1.167z" clip-rule="evenodd"/></svg>